# xmcd
#
# Track frame offsets: 
#        150
#        12612
#        25717
#        39694
#        54729
#        71048
#        86551
#        99981
#        113441
#        126483
#        141358
#        154603
#        169095
#        185950
#        201017
#        214887
#        228435
#        242785
#        255202
#        268177
#
# Disc length: 3746 seconds
#
# Revision: 1
# Processed by: cddbd v1.5.1PL0 Copyright (c) Steve Scherf et al.
# Submitted via: ExactAudioCopy v0.95a3
#
DISCID=220ea014
DTITLE=Duke Ellington - Анталогия Джаза. Mood Indigo
DYEAR=2000
DGENRE=Jazz
TTITLE0=Caravan
TTITLE1=Rockin'in Rhythm
TTITLE2=I Let A Song Go Out Of My Heart
TTITLE3=I Got It Bad And That Ain't Good
TTITLE4=East St.Louis Toodle - Oo
TTITLE5=Black And Tan Fantasy
TTITLE6=Solitude
TTITLE7=Cotton Club Stomp
TTITLE8=Mood Indigo
TTITLE9=The Mooche
TTITLE10=Take The 'a' Train
TTITLE11=Creole Love Call
TTITLE12=Sophisticated Lady
TTITLE13=In A Sentimental Mood
TTITLE14=Echoes Of Harlem
TTITLE15=Prelude To A Kiss
TTITLE16=Black Beauty
TTITLE17=Ko Ko
TTITLE18=Bojangles
TTITLE19="С" Blues
EXTD=
EXTT0=
EXTT1=
EXTT2=
EXTT3=
EXTT4=
EXTT5=
EXTT6=
EXTT7=
EXTT8=
EXTT9=
EXTT10=
EXTT11=
EXTT12=
EXTT13=
EXTT14=
EXTT15=
EXTT16=
EXTT17=
EXTT18=
EXTT19=
PLAYORDER=
